<?xml version="1.0" encoding="UTF-8"?>
<svg xmlns="http://www.w3.org/2000/svg" xmlns:xlink="http://www.w3.org/1999/xlink" width="150px" height="150px" viewBox="0 0 150 150" version="1.1">
<g id="surface1">
<path style=" stroke:none;fill-rule:nonzero;fill:rgb(36.078431%,55.294118%,73.72549%);fill-opacity:1;" d="M 149.75 44.328125 C 149.746094 41.828125 149.140625 39.621094 147.917969 37.726562 C 146.714844 35.863281 144.914062 34.300781 142.496094 33.066406 C 122.5625 22.917969 102.605469 12.796875 82.675781 2.636719 C 77.304688 -0.101562 72.09375 0 66.761719 2.777344 C 58.828125 6.910156 19.09375 27.003906 7.257812 33.058594 C 2.382812 35.550781 0.0078125 39.363281 0.0078125 44.320312 C 0 64.730469 0.0078125 85.140625 0 105.554688 C 0 107.996094 0.582031 110.160156 1.75 112.027344 C 2.953125 113.949219 4.78125 115.550781 7.25 116.816406 C 19.089844 122.871094 58.824219 142.964844 66.757812 147.097656 C 72.09375 149.875 77.304688 149.976562 82.679688 147.234375 C 102.609375 137.074219 122.566406 126.957031 142.507812 116.808594 C 144.976562 115.546875 146.800781 113.941406 148.003906 112.023438 C 149.171875 110.15625 149.753906 107.992188 149.753906 105.546875 C 149.753906 105.546875 149.753906 64.738281 149.75 44.328125 "/>
<path style=" stroke:none;fill-rule:nonzero;fill:rgb(10.196078%,27.45098%,45.490196%);fill-opacity:1;" d="M 75.105469 74.738281 L 1.75 112.027344 C 2.953125 113.949219 4.78125 115.550781 7.25 116.816406 C 19.089844 122.871094 58.824219 142.964844 66.757812 147.097656 C 72.09375 149.875 77.304688 149.976562 82.679688 147.234375 C 102.609375 137.074219 122.566406 126.957031 142.507812 116.808594 C 144.976562 115.546875 146.800781 113.941406 148.003906 112.023438 L 75.105469 74.738281 "/>
<path style=" stroke:none;fill-rule:nonzero;fill:rgb(10.196078%,27.45098%,45.490196%);fill-opacity:1;" d="M 53.378906 85.785156 C 57.648438 92.363281 65.671875 96.800781 74.875 96.800781 C 84.140625 96.800781 92.207031 92.308594 96.453125 85.65625 L 75.105469 74.738281 L 53.378906 85.785156 "/>
<path style=" stroke:none;fill-rule:nonzero;fill:rgb(10.588235%,34.901961%,55.686275%);fill-opacity:1;" d="M 149.75 44.328125 C 149.746094 41.828125 149.140625 39.621094 147.917969 37.726562 L 75.105469 74.738281 L 148.003906 112.023438 C 149.171875 110.15625 149.753906 107.992188 149.753906 105.546875 C 149.753906 105.546875 149.753906 64.738281 149.75 44.328125 "/>
<path style=" stroke:none;fill-rule:nonzero;fill:rgb(100%,100%,100%);fill-opacity:1;" d="M 145.738281 77.402344 L 140.042969 77.402344 L 140.042969 82.433594 L 134.347656 82.433594 L 134.347656 77.402344 L 128.652344 77.402344 L 128.652344 72.375 L 134.347656 72.375 L 134.347656 67.34375 L 140.042969 67.34375 L 140.042969 72.375 L 145.738281 72.375 L 145.738281 77.402344 M 124.953125 77.402344 L 119.257812 77.402344 L 119.257812 82.433594 L 113.5625 82.433594 L 113.5625 77.402344 L 107.867188 77.402344 L 107.867188 72.375 L 113.5625 72.375 L 113.5625 67.34375 L 119.257812 67.34375 L 119.257812 72.375 L 124.953125 72.375 L 124.953125 77.402344 "/>
<path style=" stroke:none;fill-rule:nonzero;fill:rgb(100%,100%,100%);fill-opacity:1;" d="M 96.453125 85.65625 C 92.207031 92.308594 84.140625 96.800781 74.875 96.800781 C 65.671875 96.800781 57.648438 92.363281 53.378906 85.785156 C 51.238281 82.484375 50.109375 78.742188 50.113281 74.9375 C 50.113281 62.863281 61.203125 53.074219 74.875 53.074219 C 84.023438 53.074219 92.003906 57.457031 96.296875 63.96875 L 117.941406 52.964844 C 109.335938 39.851562 93.273438 31.03125 74.875 31.03125 C 47.414062 31.03125 25.148438 50.6875 25.148438 74.9375 C 25.148438 82.890625 27.542969 90.351562 31.734375 96.789062 C 40.316406 109.96875 56.421875 118.84375 74.875 118.84375 C 93.367188 118.84375 109.5 109.933594 118.070312 96.710938 L 96.453125 85.65625 "/>
</g>
</svg>
