<?xml version="1.0" encoding="UTF-8"?>
<svg xmlns="http://www.w3.org/2000/svg" xmlns:xlink="http://www.w3.org/1999/xlink" width="150px" height="150px" viewBox="0 0 150 150" version="1.1">
<g id="surface1">
<path style=" stroke:none;fill-rule:nonzero;fill:rgb(63.137255%,47.45098%,86.27451%);fill-opacity:1;" d="M 149.332031 44.402344 C 149.332031 41.90625 148.730469 39.699219 147.515625 37.804688 C 146.320312 35.945312 144.535156 34.382812 142.136719 33.148438 C 122.34375 23.003906 102.53125 12.890625 82.742188 2.738281 C 77.410156 0 72.234375 0.101562 66.941406 2.875 C 59.0625 7.007812 19.617188 27.09375 7.863281 33.144531 C 3.023438 35.632812 0.667969 39.445312 0.667969 44.398438 C 0.660156 64.800781 0.667969 85.199219 0.660156 105.601562 C 0.660156 108.042969 1.234375 110.207031 2.398438 112.070312 C 3.589844 113.992188 5.40625 115.59375 7.859375 116.855469 C 19.613281 122.90625 59.0625 142.992188 66.9375 147.121094 C 72.234375 149.902344 77.410156 150 82.746094 147.261719 C 102.53125 137.105469 122.347656 126.996094 142.144531 116.851562 C 144.597656 115.589844 146.410156 113.984375 147.601562 112.066406 C 148.761719 110.203125 149.339844 108.039062 149.339844 105.59375 C 149.339844 105.59375 149.339844 64.804688 149.332031 44.402344 "/>
<path style=" stroke:none;fill-rule:nonzero;fill:rgb(15.686275%,0%,40.784314%);fill-opacity:1;" d="M 75.226562 74.800781 L 2.398438 112.070312 C 3.589844 113.992188 5.40625 115.59375 7.859375 116.855469 C 19.613281 122.90625 59.0625 142.992188 66.9375 147.121094 C 72.234375 149.902344 77.410156 150 82.746094 147.261719 C 102.53125 137.105469 122.347656 126.996094 142.144531 116.851562 C 144.597656 115.589844 146.410156 113.984375 147.601562 112.066406 Z M 75.226562 74.800781 "/>
<path style=" stroke:none;fill-rule:nonzero;fill:rgb(22.352941%,0%,56.862745%);fill-opacity:1;" d="M 149.332031 44.402344 C 149.332031 41.90625 148.730469 39.699219 147.515625 37.804688 L 75.226562 74.800781 L 147.601562 112.066406 C 148.761719 110.203125 149.339844 108.039062 149.339844 105.59375 C 149.339844 105.59375 149.339844 64.804688 149.332031 44.402344 "/>
<path style=" stroke:none;fill-rule:nonzero;fill:rgb(100%,100%,100%);fill-opacity:1;" d="M 118.105469 60.867188 L 118.105469 67.835938 L 125.945312 67.835938 L 125.945312 60.867188 L 129.863281 60.867188 L 129.863281 67.835938 L 137.703125 67.835938 L 137.703125 71.316406 L 129.863281 71.316406 L 129.863281 78.285156 L 137.703125 78.285156 L 137.703125 81.769531 L 129.863281 81.769531 L 129.863281 88.734375 L 125.945312 88.734375 L 125.945312 81.769531 L 118.105469 81.769531 L 118.105469 88.734375 L 114.1875 88.734375 L 114.1875 81.769531 L 106.351562 81.769531 L 106.351562 78.285156 L 114.1875 78.285156 L 114.1875 71.316406 L 106.351562 71.316406 L 106.351562 67.835938 L 114.1875 67.835938 L 114.1875 60.867188 Z M 125.945312 71.316406 L 118.105469 71.316406 L 118.105469 78.285156 L 125.945312 78.285156 Z M 125.945312 71.316406 "/>
<path style=" stroke:none;fill-rule:nonzero;fill:rgb(100%,100%,100%);fill-opacity:1;" d="M 75.386719 25.878906 C 95.832031 25.878906 113.679688 35.75 123.242188 50.417969 L 123.148438 50.277344 L 99.09375 62.585938 C 94.355469 55.453125 85.667969 50.640625 75.699219 50.542969 L 75.386719 50.539062 C 60.1875 50.539062 47.867188 61.492188 47.867188 75 C 47.863281 79.257812 49.113281 83.441406 51.496094 87.132812 C 56.242188 94.496094 65.15625 99.460938 75.386719 99.460938 C 85.679688 99.460938 94.648438 94.433594 99.367188 86.992188 L 99.253906 87.171875 L 123.269531 99.539062 C 113.816406 114.082031 96.210938 123.921875 76.003906 124.117188 L 75.386719 124.121094 C 54.878906 124.121094 36.976562 114.191406 27.441406 99.445312 C 22.785156 92.246094 20.121094 83.898438 20.121094 75 C 20.121094 47.871094 44.863281 25.878906 75.386719 25.878906 Z M 75.386719 25.878906 "/>
</g>
</svg>
