<?xml version="1.0" encoding="UTF-8"?>
<svg xmlns="http://www.w3.org/2000/svg" xmlns:xlink="http://www.w3.org/1999/xlink" width="150px" height="150px" viewBox="0 0 150 150" version="1.1">
<g id="surface1">
<path style=" stroke:none;fill-rule:nonzero;fill:rgb(0%,0%,0%);fill-opacity:1;" d="M 29.953125 0.300781 C 39.152344 0.21875 48.351562 0.273438 57.550781 0.273438 C 57.574219 2.324219 57.617188 4.378906 57.511719 6.429688 C 51.136719 6.398438 44.769531 6.429688 38.398438 6.460938 C 38.355469 9.441406 38.269531 12.421875 38.308594 15.402344 C 44.707031 15.429688 51.105469 15.476562 57.503906 15.457031 C 57.578125 17.144531 57.550781 18.835938 57.480469 20.527344 C 48.308594 20.484375 39.132812 20.503906 29.960938 20.507812 C 29.984375 13.773438 30 7.039062 29.953125 0.300781 Z M 29.953125 0.300781 "/>
<path style=" stroke:none;fill-rule:nonzero;fill:rgb(0%,0%,0%);fill-opacity:1;" d="M 60.832031 0.277344 C 70.144531 0.265625 79.460938 0.226562 88.777344 0.300781 C 88.742188 2.242188 88.769531 4.179688 88.769531 6.117188 C 81.992188 6.101562 75.210938 6.125 68.433594 6.179688 C 68.441406 6.945312 68.441406 7.707031 68.433594 8.46875 C 75.203125 8.546875 81.964844 8.554688 88.730469 8.585938 C 88.753906 12.5625 88.742188 16.539062 88.777344 20.511719 C 79.460938 20.5 70.140625 20.507812 60.824219 20.539062 C 60.777344 18.929688 60.769531 17.328125 60.835938 15.722656 C 67.292969 15.734375 73.753906 15.742188 80.214844 15.703125 C 80.253906 14.667969 80.269531 13.632812 80.265625 12.597656 C 73.777344 12.597656 67.285156 12.613281 60.796875 12.582031 C 60.796875 8.480469 60.796875 4.378906 60.832031 0.277344 Z M 60.832031 0.277344 "/>
<path style=" stroke:none;fill-rule:nonzero;fill:rgb(0%,0%,0%);fill-opacity:1;" d="M 91.898438 0.3125 C 101.191406 0.3125 110.492188 0.3125 119.789062 0.3125 C 119.828125 2.261719 119.867188 4.210938 119.78125 6.160156 C 112.972656 6.15625 106.164062 6.183594 99.359375 6.195312 C 99.375 6.992188 99.402344 7.789062 99.457031 8.585938 C 106.226562 8.5625 112.996094 8.621094 119.757812 8.671875 C 119.820312 12.632812 119.863281 16.589844 119.785156 20.550781 C 110.46875 20.53125 101.148438 20.53125 91.832031 20.5625 C 91.773438 18.960938 91.757812 17.355469 91.851562 15.757812 C 98.296875 15.789062 104.746094 15.785156 111.195312 15.742188 C 111.210938 14.703125 111.242188 13.664062 111.230469 12.632812 C 104.757812 12.675781 98.285156 12.648438 91.808594 12.632812 C 91.808594 8.527344 91.851562 4.417969 91.898438 0.3125 Z M 91.898438 0.3125 "/>
<path style=" stroke:none;fill-rule:nonzero;fill:rgb(0.392157%,43.921569%,72.941176%);fill-opacity:1;" d="M 0 28.894531 C 49.90625 28.890625 99.808594 28.886719 149.714844 28.894531 C 146.96875 51.035156 144.265625 73.175781 141.40625 95.308594 C 139.703125 109.457031 137.953125 123.601562 136.105469 137.742188 C 125.453125 139.753906 114.910156 142.046875 104.265625 144.070312 C 94.484375 146.117188 84.628906 147.96875 74.847656 150 L 74.558594 150 C 65.25 148.023438 55.847656 146.289062 46.539062 144.3125 C 35.550781 142.199219 24.660156 139.84375 13.667969 137.742188 C 12.234375 127.144531 10.941406 116.539062 9.667969 105.9375 C 7.261719 86.347656 4.648438 66.769531 2.335938 47.175781 C 1.535156 41.277344 0.960938 35.363281 0 29.476562 L 0 28.894531 M 75.09375 37.628906 C 74.988281 41.882812 75.171875 46.136719 74.988281 50.386719 C 57.867188 50.34375 40.742188 50.378906 23.621094 50.390625 C 23.914062 54.519531 24.691406 58.617188 25.488281 62.710938 C 41.417969 63.132812 57.367188 62.695312 73.296875 63.039062 C 59.359375 67.496094 45.253906 71.695312 31.257812 76.0625 C 30.058594 76.445312 28.773438 76.730469 27.699219 77.289062 C 27.816406 81.820312 28.84375 86.332031 29.292969 90.855469 C 37.785156 90.835938 46.269531 90.738281 54.761719 90.726562 C 61.5625 90.703125 68.371094 90.800781 75.175781 90.695312 C 74.851562 98.148438 75.277344 105.617188 74.957031 113.070312 C 70.378906 112.585938 65.855469 111.859375 61.296875 111.28125 C 57.699219 110.722656 54.015625 110.429688 50.472656 109.695312 C 49.96875 106.117188 49.617188 102.527344 49.171875 98.945312 C 48.144531 98.722656 47.058594 98.742188 46 98.730469 C 40.855469 98.753906 35.707031 98.71875 30.5625 98.773438 C 31.066406 105.660156 31.933594 112.535156 33.410156 119.351562 C 38.480469 120.296875 43.5625 121.222656 48.628906 122.207031 C 56.386719 123.710938 64.242188 124.964844 72.011719 126.445312 C 72.9375 126.585938 73.871094 126.832031 74.828125 126.773438 C 75.347656 131.304688 74.949219 135.859375 75.042969 140.398438 C 76.835938 140.195312 78.597656 139.878906 80.328125 139.496094 C 95.039062 136.648438 109.730469 133.742188 124.433594 130.867188 C 125.164062 126.742188 125.507812 122.585938 126.085938 118.453125 C 127.613281 105.882812 129.15625 93.316406 130.757812 80.75 C 132.640625 66.375 134.265625 51.984375 136.15625 37.609375 C 115.796875 37.621094 95.445312 37.582031 75.09375 37.628906 Z M 75.09375 37.628906 "/>
<path style=" stroke:none;fill-rule:nonzero;fill:rgb(16.078431%,66.27451%,87.45098%);fill-opacity:1;" d="M 75.09375 37.628906 C 95.445312 37.582031 115.796875 37.621094 136.15625 37.609375 C 134.265625 51.984375 132.640625 66.375 130.757812 80.75 C 129.15625 93.316406 127.613281 105.882812 126.085938 118.453125 C 125.507812 122.585938 125.164062 126.742188 124.433594 130.867188 C 109.730469 133.742188 95.039062 136.648438 80.328125 139.496094 C 78.597656 139.878906 76.835938 140.195312 75.042969 140.398438 C 74.949219 135.859375 75.347656 131.304688 74.828125 126.773438 C 74.960938 126.757812 75.226562 126.71875 75.359375 126.699219 C 89.039062 124.25 102.628906 121.554688 116.28125 119.015625 C 118.007812 105.203125 119.921875 91.398438 121.132812 77.554688 C 109.527344 77.601562 97.910156 77.574219 86.300781 77.609375 C 84.613281 77.617188 82.921875 77.609375 81.238281 77.523438 C 87.484375 75.226562 94.058594 73.410156 100.46875 71.363281 C 106.625 69.371094 112.855469 67.507812 119.03125 65.554688 C 120.222656 65.164062 121.492188 64.835938 122.539062 64.257812 C 122.953125 63.179688 122.929688 62.050781 123.09375 60.945312 C 123.449219 57.445312 124.078125 53.964844 124.316406 50.460938 C 107.875 50.367188 91.433594 50.449219 74.988281 50.386719 C 75.171875 46.136719 74.988281 41.882812 75.09375 37.628906 Z M 75.09375 37.628906 "/>
<path style=" stroke:none;fill-rule:nonzero;fill:rgb(16.078431%,66.27451%,87.45098%);fill-opacity:1;" d="M 75.175781 90.695312 C 83.113281 90.597656 91.054688 90.75 99 90.710938 C 98.554688 96.503906 97.882812 102.285156 97.460938 108.074219 C 92.59375 109.210938 87.652344 110.167969 82.746094 111.21875 C 80.128906 111.789062 77.445312 112.238281 74.957031 113.070312 C 75.277344 105.617188 74.851562 98.148438 75.175781 90.695312 Z M 75.175781 90.695312 "/>
<path style=" stroke:none;fill-rule:nonzero;fill:rgb(81.176471%,81.176471%,81.176471%);fill-opacity:1;" d="M 23.621094 50.390625 C 40.742188 50.378906 57.867188 50.34375 74.988281 50.386719 C 75.210938 63.824219 74.929688 77.261719 75.175781 90.695312 C 68.371094 90.800781 61.5625 90.703125 54.761719 90.726562 C 46.269531 90.738281 37.785156 90.835938 29.292969 90.855469 C 28.84375 86.332031 27.816406 81.820312 27.699219 77.289062 C 28.773438 76.730469 30.058594 76.445312 31.257812 76.0625 C 45.253906 71.695312 59.359375 67.496094 73.296875 63.039062 C 57.367188 62.695312 41.417969 63.132812 25.488281 62.710938 C 24.691406 58.617188 23.914062 54.519531 23.621094 50.390625 Z M 23.621094 50.390625 "/>
<path style=" stroke:none;fill-rule:nonzero;fill:rgb(81.176471%,81.176471%,81.176471%);fill-opacity:1;" d="M 30.5625 98.773438 C 35.707031 98.71875 40.855469 98.753906 46 98.730469 C 47.058594 98.742188 48.144531 98.722656 49.171875 98.945312 C 49.617188 102.527344 49.96875 106.117188 50.472656 109.695312 C 54.015625 110.429688 57.699219 110.722656 61.296875 111.28125 C 65.855469 111.859375 70.378906 112.585938 74.957031 113.070312 C 75.394531 117.609375 74.628906 122.179688 75.359375 126.699219 C 75.226562 126.71875 74.960938 126.757812 74.828125 126.773438 C 73.871094 126.832031 72.9375 126.585938 72.011719 126.445312 C 64.242188 124.964844 56.386719 123.710938 48.628906 122.207031 C 43.5625 121.222656 38.480469 120.296875 33.410156 119.351562 C 31.933594 112.535156 31.066406 105.660156 30.5625 98.773438 Z M 30.5625 98.773438 "/>
<path style=" stroke:none;fill-rule:nonzero;fill:rgb(100%,100%,100%);fill-opacity:1;" d="M 74.988281 50.386719 C 91.433594 50.449219 107.875 50.367188 124.316406 50.460938 C 124.078125 53.964844 123.449219 57.445312 123.09375 60.945312 C 122.929688 62.050781 122.953125 63.179688 122.539062 64.257812 C 121.492188 64.835938 120.222656 65.164062 119.03125 65.554688 C 112.855469 67.507812 106.625 69.371094 100.46875 71.363281 C 94.058594 73.410156 87.484375 75.226562 81.238281 77.523438 C 82.921875 77.609375 84.613281 77.617188 86.300781 77.609375 C 97.910156 77.574219 109.527344 77.601562 121.132812 77.554688 C 119.921875 91.398438 118.007812 105.203125 116.28125 119.015625 C 102.628906 121.554688 89.039062 124.25 75.359375 126.699219 C 74.628906 122.179688 75.394531 117.609375 74.957031 113.070312 C 77.445312 112.238281 80.128906 111.789062 82.746094 111.21875 C 87.652344 110.167969 92.59375 109.210938 97.460938 108.074219 C 97.882812 102.285156 98.554688 96.503906 99 90.710938 C 91.054688 90.75 83.113281 90.597656 75.175781 90.695312 C 74.929688 77.261719 75.210938 63.824219 74.988281 50.386719 Z M 74.988281 50.386719 "/>
</g>
</svg>
