<?xml version="1.0" encoding="UTF-8"?>
<svg xmlns="http://www.w3.org/2000/svg" xmlns:xlink="http://www.w3.org/1999/xlink" width="150px" height="185px" viewBox="0 0 150 185" version="1.1">
<g id="surface1">
<path style=" stroke:none;fill-rule:nonzero;fill:rgb(100%,62.745098%,0%);fill-opacity:1;" d="M 97.675781 67.238281 L 77.324219 84.164062 L 58.4375 50.113281 L 68.210938 30.527344 C 70.753906 26.550781 74.71875 26.597656 77.195312 30.527344 Z M 97.675781 67.238281 "/>
<path style=" stroke:none;fill-rule:nonzero;fill:rgb(96.078431%,49.803922%,9.019608%);fill-opacity:1;" d="M 58.441406 50.113281 L 77.328125 84.160156 L 1.269531 147.414062 Z M 58.441406 50.113281 "/>
<path style=" stroke:none;fill-rule:nonzero;fill:rgb(100%,79.215686%,15.686275%);fill-opacity:1;" d="M 119.933594 41.363281 C 123.570312 38.238281 127.328125 39.308594 128.289062 43.730469 L 148.085938 146.574219 L 82.464844 181.789062 C 80.175781 182.925781 74.078125 183.414062 74.078125 183.414062 C 74.078125 183.414062 68.523438 182.824219 66.410156 181.710938 L 1.269531 147.414062 Z M 119.933594 41.363281 "/>
<path style=" stroke:none;fill-rule:nonzero;fill:rgb(100%,62.745098%,0%);fill-opacity:1;" d="M 58.445312 50.113281 L 1.277344 147.410156 L 26.738281 5.210938 C 27.679688 0.777344 30.5 0.351562 33.015625 4.261719 Z M 58.445312 50.113281 "/>
</g>
</svg>
