<?xml version="1.0" encoding="UTF-8"?>
<svg xmlns="http://www.w3.org/2000/svg" xmlns:xlink="http://www.w3.org/1999/xlink" width="150px" height="150px" viewBox="0 0 150 150" version="1.1">
<g id="surface1">
<path style=" stroke:none;fill-rule:nonzero;fill:rgb(0%,36.470588%,88.235294%);fill-opacity:1;" d="M 11.25 6.710938 L 20.722656 127.894531 C 20.921875 129.671875 22.105469 131.25 23.882812 131.84375 L 73.816406 147.632812 C 74.605469 147.828125 75.59375 147.828125 76.578125 147.632812 L 126.511719 131.84375 C 128.289062 131.25 129.472656 129.671875 129.671875 127.894531 L 139.144531 6.710938 C 138.949219 4.144531 136.972656 1.972656 134.40625 1.972656 L 15.59375 1.972656 C 13.027344 1.972656 11.050781 4.144531 11.25 6.710938 Z M 114.472656 44.40625 L 52.699219 44.40625 L 54.472656 61.578125 L 113.09375 61.578125 L 109.34375 110.527344 L 75 121.578125 L 40.65625 110.722656 L 38.683594 85.066406 L 56.644531 85.066406 L 56.644531 97.699219 L 75.394531 102.828125 L 94.144531 97.699219 L 95.527344 77.761719 L 38.09375 77.761719 L 34.34375 28.816406 L 115.855469 28.816406 Z M 114.472656 44.40625 "/>
</g>
</svg>
