<?xml version="1.0" ?><!DOCTYPE svg  PUBLIC '-//W3C//DTD SVG 1.1//EN'  'http://www.w3.org/Graphics/SVG/1.1/DTD/svg11.dtd'><svg id="Layer_1" style="enable-background:new 0 0 76 76;" version="1.1" viewBox="0 0 76 76" xml:space="preserve" xmlns="http://www.w3.org/2000/svg" xmlns:xlink="http://www.w3.org/1999/xlink"><style type="text/css">
	.st0{fill:#90A358;}
	.st1{fill:#04B086;}
	.st2{fill:#FFBA00;}
	.st3{fill:#005DE1;}
	.st4{fill:#FF4175;}
	.st5{fill:#171715;}
	.st6{fill:#FFAC35;}
	.st7{fill:#AAC148;}
	.st8{fill:#0067FF;}
	.st9{fill:#00AEF0;}
	.st10{fill:#222A30;}
	.st11{fill:#FFFFFF;}
	.st12{fill:#0074D2;}
	.st13{fill:#D4D1D1;}
	.st14{fill:#01CB3E;}
	.st15{fill:#A6285F;}
	.st16{fill:#1587EA;}
	.st17{fill:#90B24C;}
	.st18{fill:#E65300;}
	.st19{fill:#475993;}
	.st20{fill:#FF007E;}
	.st21{fill:#F34A38;}
	.st22{fill:#333F40;}
	.st23{fill:#FF9414;}
	.st24{fill:#0090E1;}
	.st25{fill:#FC490B;}
	.st26{fill:url(#XMLID_10_);}
	.st27{fill:url(#XMLID_11_);}
	.st28{fill:url(#XMLID_12_);}
	.st29{fill:#00CE62;}
	.st30{fill:#0077B7;}
	.st31{fill:#00FD8D;}
	.st32{fill:#00E470;}
	.st33{fill:#00C967;}
	.st34{fill:#00AD6C;}
	.st35{fill:#EB4427;}
	.st36{fill:#002987;}
	.st37{fill:#0085CC;}
	.st38{fill:#00186A;}
	.st39{fill:#00A4C3;}
	.st40{fill:#FF4B30;}
	.st41{fill:#9F1121;}
	.st42{fill:#2950A1;}
	.st43{fill:#CF2217;}
	.st44{fill:#0088C3;}
	.st45{fill:#FF1A03;}
	.st46{fill:#00AAF2;}
	.st47{fill:#050505;}
	.st48{fill:url(#SVGID_1_);}
	.st49{fill:url(#SVGID_2_);}
	.st50{fill:url(#SVGID_3_);}
	.st51{fill:url(#SVGID_4_);}
	.st52{fill:url(#SVGID_5_);}
	.st53{fill:url(#SVGID_6_);}
	.st54{fill:url(#SVGID_7_);}
	.st55{fill:url(#SVGID_8_);}
	.st56{fill:url(#SVGID_9_);}
	.st57{fill:url(#SVGID_10_);}
	.st58{fill:url(#SVGID_11_);}
	.st59{fill:#00D95F;}
	.st60{fill:#FF4403;}
	.st61{fill:#518FE1;}
	.st62{fill:#2A445D;}
	.st63{fill:#76A9EA;}
	.st64{fill:#69B4E5;}
	.st65{fill:#7AD06D;}
	.st66{fill:#00769D;}
	.st67{fill:#DC0000;}
	.st68{fill:#F61C0D;}
</style><g><path class="st3" d="M5.7,3.4l4.8,61.4c0.1,0.9,0.7,1.7,1.6,2l25.3,8c0.4,0.1,0.9,0.1,1.4,0l25.3-8c0.9-0.3,1.5-1.1,1.6-2l4.8-61.4   C70.4,2.1,69.4,1,68.1,1H7.9C6.6,1,5.6,2.1,5.7,3.4z M58,22.5H26.7l0.9,8.7h29.7l-1.9,24.8L38,61.6l-17.4-5.5l-1-13h9.1v6.4   l9.5,2.6l9.5-2.6l0.7-10.1H19.3l-1.9-24.8h41.3L58,22.5z"/></g></svg>