<?xml version="1.0" encoding="UTF-8"?>
<svg xmlns="http://www.w3.org/2000/svg" xmlns:xlink="http://www.w3.org/1999/xlink" width="150px" height="150px" viewBox="0 0 150 150" version="1.1">
<g id="surface1">
<path style=" stroke:none;fill-rule:evenodd;fill:rgb(8.235294%,49.411765%,98.431373%);fill-opacity:1;" d="M 23.410156 46.875 C 15.660156 46.875 9.375 53.167969 9.375 60.933594 L 9.375 93.753906 C 9.375 101.519531 15.660156 107.8125 23.410156 107.8125 L 131.277344 107.8125 C 139.027344 107.8125 145.3125 101.519531 145.3125 93.753906 L 145.3125 60.933594 C 145.3125 53.167969 139.027344 46.875 131.277344 46.875 Z M 23.472656 51.5625 C 18.273438 51.5625 14.0625 55.78125 14.0625 60.898438 L 14.0625 93.789062 C 14.0625 98.945312 18.273438 103.125 23.472656 103.125 L 131.214844 103.125 C 136.414062 103.125 140.625 98.90625 140.625 93.789062 L 140.625 60.898438 C 140.625 55.742188 136.414062 51.5625 131.214844 51.5625 Z M 91.40625 85.546875 L 98.4375 60.9375 L 103.125 60.9375 L 93.75 93.75 L 89.0625 93.75 L 79.6875 60.9375 L 84.375 60.9375 Z M 23.4375 79.6875 L 23.4375 84.347656 C 23.4375 89.539062 27.628906 93.75 32.835938 93.75 L 37.476562 93.75 C 42.667969 93.75 46.875 89.59375 46.875 84.347656 L 46.875 60.9375 L 42.1875 60.9375 L 42.1875 84.417969 C 42.1875 86.949219 40.089844 89.0625 37.503906 89.0625 L 32.808594 89.0625 C 30.199219 89.0625 28.125 86.964844 28.125 84.375 L 28.125 79.6875 Z M 70.3125 79.6875 L 56.25 79.6875 L 56.25 93.75 L 51.5625 93.75 L 51.5625 70.3125 C 51.5625 65.097656 55.769531 60.9375 60.960938 60.9375 L 65.601562 60.9375 C 70.808594 60.9375 75 65.136719 75 70.3125 L 75 93.75 L 70.3125 93.75 Z M 60.933594 65.625 C 58.347656 65.625 56.25 67.707031 56.25 70.3125 L 56.25 75 L 70.3125 75 L 70.3125 70.3125 C 70.3125 67.722656 68.238281 65.625 65.628906 65.625 Z M 126.5625 79.6875 L 112.5 79.6875 L 112.5 93.75 L 107.8125 93.75 L 107.8125 70.3125 C 107.8125 65.097656 112.019531 60.9375 117.210938 60.9375 L 121.851562 60.9375 C 127.058594 60.9375 131.25 65.136719 131.25 70.3125 L 131.25 93.75 L 126.5625 93.75 Z M 117.183594 65.625 C 114.597656 65.625 112.5 67.707031 112.5 70.3125 L 112.5 75 L 126.5625 75 L 126.5625 70.3125 C 126.5625 67.722656 124.488281 65.625 121.878906 65.625 Z M 117.183594 65.625 "/>
</g>
</svg>
