<?xml version="1.0" encoding="UTF-8"?>
<svg xmlns="http://www.w3.org/2000/svg" xmlns:xlink="http://www.w3.org/1999/xlink" width="150px" height="150px" viewBox="0 0 150 150" version="1.1">
<g id="surface1">
<path style=" stroke:none;fill-rule:nonzero;fill:rgb(20.392157%,65.882353%,32.54902%);fill-opacity:1;" d="M 144.027344 59.488281 C 126.804688 24.738281 86.183594 13.320312 81.816406 8.949219 C 78.246094 6.398438 74.890625 3.457031 72.121094 0.375 L 71.824219 0 C 71.824219 0.117188 71.824219 0.195312 71.753906 0.304688 L 71.753906 1.125 C 71.753906 1.125 71.753906 1.179688 71.753906 1.207031 L 71.753906 1.199219 L 71.753906 1.332031 C 71.753906 1.351562 71.769531 1.375 71.769531 1.398438 C 71.769531 1.425781 71.769531 1.445312 71.753906 1.46875 L 71.753906 1.792969 L 71.632812 2.105469 L 71.632812 2.207031 C 71.632812 2.207031 71.632812 2.230469 71.632812 2.242188 L 71.632812 2.5 L 71.5625 2.5 L 71.5625 2.601562 L 71.074219 2.601562 L 71.074219 2.957031 L 70.992188 2.957031 L 70.992188 3.242188 L 70.664062 3.242188 L 70.664062 3.5 C 70.664062 3.5 70.664062 3.511719 70.664062 3.519531 L 70.664062 3.613281 C 70.664062 3.613281 70.664062 3.632812 70.664062 3.644531 L 70.351562 3.75 L 70.28125 3.792969 L 70.28125 3.929688 L 70.214844 3.929688 L 70.214844 4.042969 L 70.132812 4.042969 L 70.132812 4.324219 L 70.050781 4.324219 L 70.050781 4.445312 L 69.980469 4.445312 L 69.980469 4.554688 L 69.914062 4.554688 L 69.914062 4.695312 L 69.300781 4.695312 L 69.300781 4.789062 L 69.230469 4.789062 L 69.230469 4.90625 L 69.164062 4.90625 L 69.164062 5 L 69.082031 5 L 69.082031 5.144531 L 69.011719 5.144531 L 69.011719 5.199219 C 69.011719 5.199219 69.011719 5.210938 69.011719 5.226562 C 68.753906 5.28125 68.535156 5.355469 68.34375 5.4375 C 68.304688 5.457031 68.261719 5.476562 68.222656 5.5 C 68.183594 5.523438 68.222656 5.5 68.222656 5.5 L 68.222656 5.863281 L 68.15625 5.863281 L 68.15625 5.8125 L 68.085938 5.8125 L 68.085938 5.875 L 68.019531 5.875 L 68.019531 5.925781 L 67.949219 5.925781 L 67.949219 6.0625 L 67.117188 6.0625 L 67.117188 6.125 L 66.980469 6.125 L 66.980469 6.25 L 66.574219 6.25 L 66.574219 6.3125 L 66.503906 6.3125 L 66.503906 6.351562 L 66.367188 6.351562 L 66.367188 6.414062 L 65.960938 6.414062 L 65.960938 6.449219 L 65.890625 6.449219 L 65.890625 6.8125 L 65.808594 6.8125 L 65.808594 6.875 L 65.742188 6.875 L 65.742188 6.914062 L 65.671875 6.914062 L 65.671875 6.949219 C 65.617188 6.988281 65.550781 7.019531 65.480469 7.050781 L 65.316406 7.113281 C 65.128906 7.175781 64.949219 7.242188 64.785156 7.3125 C 64.675781 7.351562 64.582031 7.382812 64.488281 7.417969 L 63.816406 7.664062 L 62.808594 8.050781 C 62.03125 8.34375 61.214844 8.675781 60.273438 9.042969 C 57.96875 9.96875 55.226562 11.15625 52.089844 12.59375 L 51.886719 12.6875 C 21.421875 27.523438 2.289062 47.394531 1.035156 69.304688 L 1.035156 69.417969 C 0.925781 70.386719 0.859375 71.519531 0.859375 72.65625 C 0.859375 74.03125 0.953125 75.398438 1.132812 76.757812 L 1.117188 76.570312 L 1.117188 76.625 C 2.644531 87.65625 9.683594 97.804688 20.972656 106.675781 L 20.589844 106.351562 C 24.789062 109.726562 28.964844 112.59375 33.519531 115.320312 L 33.21875 115.132812 C 43.132812 121.148438 54.421875 126.351562 67.078125 130.773438 L 67.5 130.917969 C 70.976562 135.707031 72.996094 141.210938 72.996094 146.9375 C 72.996094 147.414062 72.980469 147.886719 72.953125 148.355469 L 72.953125 148.289062 L 81.738281 149.632812 C 81.367188 147.738281 81.148438 145.539062 81.148438 143.320312 C 81.148438 139.988281 81.628906 136.707031 82.539062 133.492188 L 82.460938 133.875 C 83.34375 132.269531 84.996094 130.875 87.230469 129.726562 L 87.21875 129.738281 C 91.28125 128.40625 94.839844 127.085938 98.210938 125.667969 L 98.128906 125.707031 C 98.371094 125.585938 98.507812 125.480469 98.726562 125.367188 C 129.09375 112.304688 148.007812 93.800781 148.007812 73.261719 C 148.007812 68.257812 146.890625 63.375 144.75 58.65625 L 144.925781 59.117188 Z M 144.027344 59.488281 "/>
</g>
</svg>
