<?xml version="1.0" encoding="UTF-8"?>
<svg xmlns="http://www.w3.org/2000/svg" xmlns:xlink="http://www.w3.org/1999/xlink" width="150px" height="150px" viewBox="0 0 150 150" version="1.1">
<g id="surface1">
<path style=" stroke:none;fill-rule:evenodd;fill:rgb(25.098039%,25.490196%,21.568627%);fill-opacity:1;" d="M 75.769531 0 C 75.664062 0.00390625 75.5625 0.0976562 75.46875 0.300781 C 75.285156 0.703125 75.167969 1.445312 75.167969 2.242188 L 75.167969 59.453125 C 75.167969 60.015625 75.097656 60.519531 74.964844 60.800781 C 74.835938 61.082031 74.675781 61.082031 74.542969 60.800781 L 72.035156 55.414062 C 71.660156 54.613281 71.203125 54.613281 70.828125 55.414062 L 60.808594 76.953125 C 60.433594 77.757812 60.203125 79.304688 60.203125 80.917969 L 60.203125 123.992188 C 60.203125 125.601562 60.433594 127.074219 60.808594 127.882812 L 70.828125 149.417969 C 71.203125 150.222656 71.660156 150.222656 72.035156 149.417969 L 82.054688 127.882812 C 82.429688 127.074219 82.65625 125.601562 82.65625 123.992188 L 82.65625 16.601562 C 82.65625 14.96875 82.417969 13.4375 82.035156 12.640625 L 76.070312 0.222656 C 75.976562 0.03125 75.871094 -0.00390625 75.769531 0 Z M 11.300781 53.769531 C 11.109375 53.796875 10.929688 53.921875 10.757812 54.292969 L 0.738281 75.832031 C 0.363281 76.636719 0.132812 78.097656 0.132812 79.71875 L 0.15625 137.527344 C 0.15625 138.332031 0.265625 139.078125 0.457031 139.472656 C 0.640625 139.886719 0.871094 139.886719 1.058594 139.472656 L 7.003906 126.757812 C 7.378906 125.925781 7.625 124.476562 7.625 122.871094 L 7.625 95.875 C 7.625 94.261719 7.851562 92.785156 8.226562 91.984375 L 10.757812 86.527344 C 10.945312 86.121094 11.152344 85.925781 11.359375 85.925781 C 11.566406 85.925781 11.78125 86.117188 11.964844 86.527344 L 14.492188 91.984375 C 14.867188 92.785156 15.097656 94.261719 15.097656 95.875 L 15.097656 122.871094 C 15.097656 124.476562 15.34375 125.9375 15.71875 126.757812 L 21.664062 139.472656 C 21.851562 139.886719 22.082031 139.886719 22.265625 139.472656 C 22.453125 139.078125 22.566406 138.332031 22.566406 137.527344 L 22.589844 79.71875 C 22.589844 78.097656 22.359375 76.636719 21.984375 75.832031 L 11.964844 54.292969 C 11.792969 53.921875 11.613281 53.800781 11.421875 53.769531 Z M 101.355469 54.292969 C 101.148438 54.292969 100.941406 54.488281 100.753906 54.890625 L 90.730469 76.429688 C 90.355469 77.234375 90.128906 78.707031 90.128906 80.320312 L 90.128906 123.394531 C 90.128906 125.015625 90.375 126.484375 90.753906 127.285156 L 100.691406 148.371094 C 101.0625 149.152344 101.507812 149.210938 101.878906 148.445312 L 107.902344 135.957031 C 108.09375 135.5625 108.222656 134.824219 108.222656 134.011719 C 108.226562 133.199219 108.113281 132.472656 107.921875 132.070312 L 97.839844 110.53125 C 97.652344 110.128906 97.519531 109.316406 97.519531 108.511719 L 97.519531 95.050781 C 97.519531 94.246094 97.652344 93.507812 97.839844 93.105469 L 100.972656 86.375 C 101.160156 85.972656 101.390625 85.972656 101.578125 86.375 L 104.710938 93.105469 C 104.894531 93.507812 105.011719 94.246094 105.011719 95.050781 L 105.011719 105.671875 C 105.011719 106.476562 105.125 107.210938 105.3125 107.613281 C 105.5 108.015625 105.726562 108.019531 105.914062 107.613281 L 111.917969 94.601562 C 112.292969 93.796875 112.523438 92.316406 112.523438 90.714844 L 112.523438 80.316406 C 112.523438 78.710938 112.292969 77.234375 111.917969 76.429688 L 101.957031 54.890625 C 101.769531 54.484375 101.566406 54.292969 101.355469 54.292969 Z M 71.390625 86.449219 C 71.445312 86.449219 71.503906 86.5 71.550781 86.597656 L 74.988281 94.003906 C 75.078125 94.203125 75.148438 94.574219 75.148438 94.976562 L 75.148438 109.78125 C 75.148438 110.183594 75.078125 110.554688 74.988281 110.753906 L 71.550781 118.160156 C 71.457031 118.355469 71.34375 118.355469 71.25 118.160156 L 67.816406 110.753906 C 67.722656 110.554688 67.65625 110.183594 67.65625 109.78125 L 67.65625 94.976562 C 67.65625 94.574219 67.722656 94.207031 67.816406 94.003906 L 71.25 86.601562 C 71.296875 86.5 71.339844 86.453125 71.390625 86.453125 Z M 71.390625 86.449219 "/>
<path style=" stroke:none;fill-rule:evenodd;fill:rgb(51.372549%,80.392157%,16.078431%);fill-opacity:1;" d="M 131.382812 53.246094 C 131.035156 53.246094 130.695312 53.515625 130.394531 54.144531 L 120.9375 74.484375 C 120.324219 75.796875 119.953125 78.277344 119.953125 80.917969 L 119.953125 121.523438 C 119.953125 124.160156 120.324219 126.640625 120.9375 127.957031 L 123.40625 133.265625 C 124.605469 135.46875 125.050781 135.433594 125.597656 135.433594 C 127.375 135.433594 128.386719 131.417969 128.386719 124.441406 L 128.386719 84.355469 C 128.386719 83.789062 128.257812 83.382812 128.105469 83.382812 L 126.921875 83.382812 C 126.769531 83.382812 126.640625 83.789062 126.640625 84.355469 L 126.640625 124.441406 C 126.640625 127.535156 125.777344 130.644531 124.371094 128.03125 L 121.800781 122.421875 C 121.710938 122.238281 121.640625 121.914062 121.640625 121.523438 L 121.640625 80.917969 C 121.640625 80.53125 121.710938 80.140625 121.800781 79.945312 L 131.242188 59.679688 C 131.328125 59.488281 131.433594 59.488281 131.519531 59.679688 L 140.960938 79.945312 C 141.050781 80.144531 141.121094 80.519531 141.121094 80.917969 L 141.121094 121.523438 C 141.121094 121.914062 141.070312 122.308594 140.980469 122.496094 L 131.519531 142.765625 C 131.441406 142.941406 131.328125 142.941406 131.242188 142.765625 L 128.808594 137.378906 C 128.738281 137.222656 128.636719 137.234375 128.570312 137.378906 C 127.898438 138.796875 127.773438 138.960938 127.144531 139.773438 C 126.988281 139.972656 126.753906 140.285156 127.222656 141.269531 L 130.394531 148.222656 C 130.699219 148.875 131.035156 149.195312 131.382812 149.195312 C 131.730469 149.195312 132.0625 148.875 132.363281 148.222656 L 141.824219 127.957031 C 142.4375 126.628906 142.808594 124.160156 142.808594 121.523438 L 142.808594 80.917969 C 142.808594 78.277344 142.4375 75.804688 141.824219 74.484375 L 132.363281 54.144531 C 132.066406 53.515625 131.726562 53.246094 131.382812 53.246094 Z M 41.40625 54.070312 C 41.199219 54.070312 40.992188 54.265625 40.804688 54.667969 L 30.78125 76.128906 C 30.40625 76.933594 30.179688 78.484375 30.179688 80.09375 L 30.179688 123.171875 C 30.179688 124.78125 30.40625 126.253906 30.78125 127.058594 L 40.804688 148.597656 C 41.179688 149.402344 41.632812 149.402344 42.007812 148.597656 L 52.03125 127.058594 C 52.40625 126.253906 52.632812 124.78125 52.632812 123.171875 L 52.632812 80.09375 C 52.632812 78.484375 52.40625 76.933594 52.03125 76.128906 L 42.007812 54.667969 C 41.820312 54.265625 41.613281 54.070312 41.40625 54.070312 Z M 145.417969 54.292969 L 145.417969 55.339844 L 146.203125 55.339844 L 146.203125 63.042969 L 146.523438 63.042969 L 146.523438 55.339844 L 147.328125 55.339844 L 147.328125 54.292969 Z M 147.609375 54.292969 L 147.609375 63.042969 L 147.910156 63.042969 L 147.910156 57.882812 C 147.910156 57.671875 147.914062 57.347656 147.910156 56.910156 C 147.90625 56.46875 147.910156 56.082031 147.910156 55.863281 L 147.910156 55.640625 L 148.570312 63.042969 L 148.894531 63.042969 L 149.578125 55.640625 C 149.578125 56.109375 149.558594 56.566406 149.558594 56.984375 C 149.554688 57.394531 149.558594 57.703125 149.558594 57.882812 L 149.558594 63.042969 L 149.855469 63.042969 L 149.855469 54.292969 L 149.417969 54.292969 L 148.734375 61.695312 L 148.070312 54.292969 Z M 133.910156 82.261719 C 131.21875 82.261719 129.613281 86.53125 129.613281 93.628906 C 129.613281 101.332031 131.207031 103.445312 133.792969 104.398438 C 136.882812 105.527344 137.125 107.21875 137.125 109.484375 C 137.125 113.417969 136.28125 115.09375 134.292969 115.09375 C 131.792969 115.09375 131.242188 112.769531 131.058594 108.140625 C 131.039062 107.640625 130.933594 107.242188 130.796875 107.242188 L 129.574219 107.242188 C 129.421875 107.242188 129.292969 107.726562 129.292969 108.289062 C 129.292969 114.214844 130.15625 121.226562 134.292969 121.226562 C 137.285156 121.226562 139.011719 116.851562 139.011719 109.1875 C 139.011719 101.585938 137.617188 99.546875 134.714844 98.117188 C 131.78125 96.671875 131.5 95.964844 131.5 93.40625 C 131.5 91.292969 131.738281 88.46875 133.910156 88.46875 C 135.851562 88.46875 136.570312 90.027344 136.863281 94.902344 C 136.890625 95.359375 137 95.726562 137.125 95.726562 L 138.347656 95.726562 C 138.425781 95.726562 138.5 95.550781 138.550781 95.351562 C 138.601562 95.136719 138.636719 94.894531 138.632812 94.601562 C 138.441406 86.210938 136.9375 82.261719 133.910156 82.261719 Z M 101.335938 92.507812 C 101.296875 92.507812 101.25 92.507812 101.214844 92.582031 L 99.285156 96.769531 C 99.214844 96.925781 99.167969 97.210938 99.167969 97.519531 L 99.167969 105.746094 C 99.167969 106.054688 99.214844 106.339844 99.285156 106.492188 L 101.214844 110.605469 C 101.289062 110.761719 101.363281 110.761719 101.4375 110.605469 L 103.363281 106.492188 C 103.4375 106.339844 103.484375 106.054688 103.484375 105.746094 L 103.484375 97.519531 C 103.484375 97.210938 103.4375 96.925781 103.363281 96.769531 L 101.4375 92.582031 C 101.402344 92.503906 101.375 92.507812 101.335938 92.507812 Z M 101.335938 92.507812 "/>
</g>
</svg>
