<?xml version="1.0" encoding="UTF-8"?>
<svg xmlns="http://www.w3.org/2000/svg" xmlns:xlink="http://www.w3.org/1999/xlink" width="150px" height="150px" viewBox="0 0 150 150" version="1.1">
<defs>
<linearGradient id="linear0" gradientUnits="userSpaceOnUse" x1="70.252" y1="1237.476" x2="170.659" y2="1151.089" gradientTransform="matrix(0.659766,0,0,-0.665625,-34.236328,829.473047)">
<stop offset="0" style="stop-color:rgb(34.901961%,35.686275%,83.137255%);stop-opacity:1;"/>
<stop offset="1" style="stop-color:rgb(8.627451%,49.803922%,98.823529%);stop-opacity:1;"/>
</linearGradient>
<linearGradient id="linear1" gradientUnits="userSpaceOnUse" x1="209.474" y1="1098.811" x2="173.62" y2="1149.537" gradientTransform="matrix(0.659766,0,0,-0.665625,-34.236328,829.473047)">
<stop offset="0" style="stop-color:rgb(99.607843%,58.431373%,14.901961%);stop-opacity:1;"/>
<stop offset="1" style="stop-color:rgb(100%,73.333333%,45.098039%);stop-opacity:1;"/>
</linearGradient>
<filter id="alpha" filterUnits="objectBoundingBox" x="0%" y="0%" width="100%" height="100%">
  <feColorMatrix type="matrix" in="SourceGraphic" values="0 0 0 0 1 0 0 0 0 1 0 0 0 0 1 0 0 0 1 0"/>
</filter>
<mask id="mask0">
  <g filter="url(#alpha)">
<rect x="0" y="0" width="150" height="150" style="fill:rgb(0%,0%,0%);fill-opacity:0.443137;stroke:none;"/>
  </g>
</mask>
<radialGradient id="radial0" gradientUnits="userSpaceOnUse" cx="1825.678" cy="444.45" fx="1825.678" fy="444.45" r="26.743" gradientTransform="matrix(0,-0.28125,-1.236328,0,624.584766,653.409375)">
<stop offset="0" style="stop-color:rgb(32.54902%,84.705882%,41.568627%);stop-opacity:0.498039;"/>
<stop offset="1" style="stop-color:rgb(49.803922%,49.803922%,49.803922%);stop-opacity:0;"/>
</radialGradient>
<clipPath id="clip1">
  <rect x="0" y="0" width="150" height="150"/>
</clipPath>
<g id="surface5" clip-path="url(#clip1)">
<path style=" stroke:none;fill-rule:nonzero;fill:url(#radial0);" d="M 114.035156 140.152344 C 114.035156 144.304688 96.671875 147.671875 75.253906 147.671875 C 53.839844 147.671875 36.476562 144.304688 36.476562 140.152344 C 36.476562 136 53.835938 132.632812 75.253906 132.632812 C 96.671875 132.632812 114.035156 136 114.035156 140.152344 Z M 114.035156 140.152344 "/>
</g>
</defs>
<g id="surface1">
<path style=" stroke:none;fill-rule:nonzero;fill:url(#linear0);" d="M 74.285156 2.328125 C 69.339844 2.351562 64.617188 2.773438 60.457031 3.507812 C 48.210938 5.671875 45.988281 10.203125 45.988281 18.554688 L 45.988281 29.582031 L 74.925781 29.582031 L 74.925781 33.257812 L 35.128906 33.257812 C 26.71875 33.257812 19.355469 38.3125 17.050781 47.929688 C 14.394531 58.953125 14.277344 65.832031 17.050781 77.339844 C 19.109375 85.90625 24.019531 92.011719 32.429688 92.011719 L 42.382812 92.011719 L 42.382812 78.789062 C 42.382812 69.238281 50.644531 60.8125 60.460938 60.8125 L 89.363281 60.8125 C 97.410156 60.8125 103.832031 54.1875 103.832031 46.109375 L 103.832031 18.554688 C 103.832031 10.710938 97.214844 4.820312 89.363281 3.511719 C 84.390625 2.683594 79.234375 2.308594 74.285156 2.328125 Z M 58.636719 11.199219 C 61.625 11.199219 64.066406 13.679688 64.066406 16.730469 C 64.066406 19.769531 61.625 22.226562 58.636719 22.226562 C 55.636719 22.226562 53.207031 19.769531 53.207031 16.730469 C 53.207031 13.679688 55.636719 11.199219 58.636719 11.199219 Z M 58.636719 11.199219 "/>
<path style=" stroke:none;fill-rule:nonzero;fill:url(#linear1);" d="M 107.441406 33.257812 L 107.441406 46.109375 C 107.441406 56.070312 98.992188 64.453125 89.363281 64.453125 L 60.457031 64.453125 C 52.539062 64.453125 45.988281 71.230469 45.988281 79.160156 L 45.988281 106.71875 C 45.988281 114.558594 52.808594 119.171875 60.457031 121.421875 C 69.617188 124.113281 78.402344 124.601562 89.363281 121.421875 C 96.648438 119.308594 103.832031 115.066406 103.832031 106.71875 L 103.832031 95.6875 L 74.925781 95.6875 L 74.925781 92.007812 L 118.300781 92.007812 C 126.710938 92.007812 129.847656 86.144531 132.769531 77.339844 C 135.792969 68.273438 135.664062 59.558594 132.769531 47.929688 C 130.691406 39.554688 126.722656 33.257812 118.300781 33.257812 Z M 91.183594 103.039062 C 94.183594 103.039062 96.613281 105.496094 96.613281 108.539062 C 96.613281 111.585938 94.183594 114.066406 91.183594 114.066406 C 88.195312 114.066406 85.753906 111.585938 85.753906 108.539062 C 85.753906 105.496094 88.195312 103.039062 91.183594 103.039062 Z M 91.183594 103.039062 "/>
<use xlink:href="#surface5" mask="url(#mask0)"/>
</g>
</svg>
