<?xml version="1.0" encoding="UTF-8"?>
<svg xmlns="http://www.w3.org/2000/svg" xmlns:xlink="http://www.w3.org/1999/xlink" width="150px" height="150px" viewBox="0 0 150 150" version="1.1">
<g id="surface1">
<path style=" stroke:none;fill-rule:nonzero;fill:rgb(46.666667%,73.72549%,12.156863%);fill-opacity:1;" d="M 136.421875 7.820312 C 134.3125 12.859375 131.636719 17.644531 128.414062 22.039062 C 114.308594 7.9375 95.160156 0.0117188 75.214844 0.0117188 C 33.953125 0.0117188 0 33.988281 0 75.292969 C 0 95.894531 8.441406 115.621094 23.367188 129.835938 L 26.140625 132.296875 C 39.699219 143.722656 56.871094 150.007812 74.589844 150.007812 C 113.820312 150.007812 146.796875 119.269531 149.589844 80.097656 C 151.640625 60.921875 146.015625 36.664062 136.421875 7.820312 Z M 34.050781 130.265625 C 32.839844 131.769531 30.984375 132.648438 29.050781 132.648438 C 25.515625 132.648438 22.625 129.738281 22.625 126.203125 C 22.625 122.667969 25.535156 119.757812 29.050781 119.757812 C 30.515625 119.757812 31.960938 120.265625 33.09375 121.203125 C 35.847656 123.429688 36.277344 127.511719 34.050781 130.265625 Z M 136.109375 107.730469 C 117.550781 132.472656 77.910156 124.132812 52.492188 125.324219 C 52.492188 125.324219 47.980469 125.597656 43.449219 126.339844 C 43.449219 126.339844 45.148438 125.617188 47.355469 124.777344 C 65.191406 118.566406 73.632812 117.355469 84.476562 111.792969 C 104.890625 101.402344 125.070312 78.671875 129.273438 55.023438 C 121.496094 77.773438 97.9375 97.320312 76.464844 105.269531 C 61.753906 110.699219 35.183594 115.972656 35.183594 115.972656 L 34.109375 115.40625 C 16.019531 106.597656 15.472656 67.402344 48.351562 54.75 C 62.75 49.203125 76.523438 52.25 92.074219 48.539062 C 108.679688 44.59375 127.886719 32.136719 135.699219 15.886719 C 144.453125 41.878906 154.980469 82.578125 136.109375 107.730469 Z M 136.109375 107.730469 "/>
</g>
</svg>
